HIERARCHY
ROOT Hips
{
	OFFSET 5.124783 86.257683 20.937634
	CHANNELS 6 Xposition Yposition Zposition Zrotation Yrotation Xrotation 
	JOINT Spine
	{
		OFFSET -0.000000 8.814246 -2.080107
		CHANNELS 3 Zrotation Yrotation Xrotation
		JOINT Spine1
		{
			OFFSET -0.000000 8.844141 0.000000
			CHANNELS 3 Zrotation Yrotation Xrotation
			JOINT Spine2
			{
				OFFSET 0.000000 11.682268 0.000000
				CHANNELS 3 Zrotation Yrotation Xrotation
				JOINT Spine3
				{
					OFFSET 0.000000 11.746700 0.000000
					CHANNELS 3 Zrotation Yrotation Xrotation
					JOINT Neck
					{
						OFFSET -0.000000 17.658264 -0.000000
						CHANNELS 3 Zrotation Yrotation Xrotation
						JOINT Neck1
						{
							OFFSET 0.000000 5.101515 0.000000
							CHANNELS 3 Zrotation Yrotation Xrotation
							JOINT Head
							{
								OFFSET 0.000000 5.101515 0.000000
								CHANNELS 3 Zrotation Yrotation Xrotation
								JOINT HeadEnd
								{
									OFFSET 0.000000 11.655085 -0.000000
									CHANNELS 3 Zrotation Yrotation Xrotation
									End Site
									{
										OFFSET 0.000000 0.000000 0.000000
									}
								}
							}
						}
					}
					JOINT RightShoulder
					{
						OFFSET -2.625389 11.175210 -0.000000
						CHANNELS 3 Zrotation Yrotation Xrotation
						JOINT RightArm
						{
							OFFSET -0.000000 10.434715 -0.000000
							CHANNELS 3 Zrotation Yrotation Xrotation
							JOINT RightForeArm
							{
								OFFSET 0.000000 29.628420 0.000000
								CHANNELS 3 Zrotation Yrotation Xrotation
								JOINT RightHand
								{
									OFFSET -0.000000 22.857611 -0.000000
									CHANNELS 3 Zrotation Yrotation Xrotation
									JOINT RightHandThumb1
									{
										OFFSET -2.867323 3.959563 2.944291
										CHANNELS 3 Zrotation Yrotation Xrotation
										JOINT RightHandThumb2
										{
											OFFSET 0.000000 3.350399 0.000000
											CHANNELS 3 Zrotation Yrotation Xrotation
											JOINT RightHandThumb3
											{
												OFFSET 0.000000 3.756509 -0.000000
												CHANNELS 3 Zrotation Yrotation Xrotation
												JOINT RightHandThumb4
												{
													OFFSET 0.000000 3.147345 0.000000
													CHANNELS 3 Zrotation Yrotation Xrotation
													End Site
													{
														OFFSET 0.000000 0.000000 0.000000
													}
												}
											}
										}
									}
									JOINT RightHandIndex1
									{
										OFFSET -0.086752 10.030893 2.345280
										CHANNELS 3 Zrotation Yrotation Xrotation
										JOINT RightHandIndex2
										{
											OFFSET 0.000000 4.061090 0.000000
											CHANNELS 3 Zrotation Yrotation Xrotation
											JOINT RightHandIndex3
											{
												OFFSET 0.000000 3.248873 0.000000
												CHANNELS 3 Zrotation Yrotation Xrotation
												JOINT RightHandIndex4
												{
													OFFSET 0.000000 2.639709 0.000000
													CHANNELS 3 Zrotation Yrotation Xrotation
													End Site
													{
														OFFSET 0.000000 0.000000 0.000000
													}
												}
											}
										}
									}
									JOINT RightHandMiddle1
									{
										OFFSET 0.104102 9.502952 0.006768
										CHANNELS 3 Zrotation Yrotation Xrotation
										JOINT RightHandMiddle2
										{
											OFFSET 0.000000 4.568727 0.000000
											CHANNELS 3 Zrotation Yrotation Xrotation
											JOINT RightHandMiddle3
											{
												OFFSET -0.000000 3.654981 -0.000000
												CHANNELS 3 Zrotation Yrotation Xrotation
												JOINT RightHandMiddle4
												{
													OFFSET 0.000000 2.741236 0.000000
													CHANNELS 3 Zrotation Yrotation Xrotation
													End Site
													{
														OFFSET 0.000000 0.000000 0.000000
													}
												}
											}
										}
									}
									JOINT RightHandRing1
									{
										OFFSET 0.086752 8.921708 -2.267442
										CHANNELS 3 Zrotation Yrotation Xrotation
										JOINT RightHandRing2
										{
											OFFSET -0.000000 4.061090 0.000000
											CHANNELS 3 Zrotation Yrotation Xrotation
											JOINT RightHandRing3
											{
												OFFSET -0.000000 3.654981 -0.000000
												CHANNELS 3 Zrotation Yrotation Xrotation
												JOINT RightHandRing4
												{
													OFFSET 0.000000 2.741236 0.000000
													CHANNELS 3 Zrotation Yrotation Xrotation
													End Site
													{
														OFFSET 0.000000 0.000000 0.000000
													}
												}
											}
										}
									}
									JOINT RightHandPinky1
									{
										OFFSET -0.173504 7.976997 -4.467199
										CHANNELS 3 Zrotation Yrotation Xrotation
										JOINT RightHandPinky2
										{
											OFFSET 0.000000 3.350399 0.000000
											CHANNELS 3 Zrotation Yrotation Xrotation
											JOINT RightHandPinky3
											{
												OFFSET 0.000000 2.842763 0.000000
												CHANNELS 3 Zrotation Yrotation Xrotation
												JOINT RightHandPinky4
												{
													OFFSET 0.000000 2.639709 0.000000
													CHANNELS 3 Zrotation Yrotation Xrotation
													End Site
													{
														OFFSET 0.000000 0.000000 0.000000
													}
												}
											}
										}
									}
									JOINT RightForeArmEnd
									{
										OFFSET 0.000000 0.000000 0.000000
										CHANNELS 3 Zrotation Yrotation Xrotation
										End Site
										{
											OFFSET 0.000000 0.000000 0.000000
										}
									}
								}
								JOINT RightArmEnd
								{
									OFFSET 0.000000 0.000000 0.000000
									CHANNELS 3 Zrotation Yrotation Xrotation
									End Site
									{
										OFFSET 0.000000 0.000000 0.000000
									}
								}
							}
						}
					}
					JOINT LeftShoulder
					{
						OFFSET 2.625389 11.175210 -0.000000
						CHANNELS 3 Zrotation Yrotation Xrotation
						JOINT LeftArm
						{
							OFFSET 0.000000 10.813635 0.000000
							CHANNELS 3 Zrotation Yrotation Xrotation
							JOINT LeftForeArm
							{
								OFFSET 0.000000 28.724781 -0.000000
								CHANNELS 3 Zrotation Yrotation Xrotation
								JOINT LeftHand
								{
									OFFSET 0.644384 25.716167 -0.328871
									CHANNELS 3 Zrotation Yrotation Xrotation
									JOINT LeftHandThumb1
									{
										OFFSET 2.867323 3.959563 2.944291
										CHANNELS 3 Zrotation Yrotation Xrotation
										JOINT LeftHandThumb2
										{
											OFFSET -0.000000 3.350399 -0.000000
											CHANNELS 3 Zrotation Yrotation Xrotation
											JOINT LeftHandThumb3
											{
												OFFSET 0.000000 3.756509 -0.000000
												CHANNELS 3 Zrotation Yrotation Xrotation
												JOINT LeftHandThumb4
												{
													OFFSET 0.000000 3.100000 -0.000000
													CHANNELS 3 Zrotation Yrotation Xrotation
													End Site
													{
														OFFSET 0.000000 0.000000 0.000000
													}
												}
											}
										}
									}
									JOINT LeftHandIndex1
									{
										OFFSET 0.086752 10.030893 2.345280
										CHANNELS 3 Zrotation Yrotation Xrotation
										JOINT LeftHandIndex2
										{
											OFFSET -0.000000 4.061090 0.000000
											CHANNELS 3 Zrotation Yrotation Xrotation
											JOINT LeftHandIndex3
											{
												OFFSET -0.000000 3.248873 0.000000
												CHANNELS 3 Zrotation Yrotation Xrotation
												JOINT LeftHandIndex4
												{
													OFFSET 0.000000 2.639709 -0.000000
													CHANNELS 3 Zrotation Yrotation Xrotation
													End Site
													{
														OFFSET 0.000000 0.000000 0.000000
													}
												}
											}
										}
									}
									JOINT LeftHandMiddle1
									{
										OFFSET -0.104102 9.502952 0.006768
										CHANNELS 3 Zrotation Yrotation Xrotation
										JOINT LeftHandMiddle2
										{
											OFFSET -0.000000 4.568727 0.000000
											CHANNELS 3 Zrotation Yrotation Xrotation
											JOINT LeftHandMiddle3
											{
												OFFSET 0.000000 3.654981 -0.000000
												CHANNELS 3 Zrotation Yrotation Xrotation
												JOINT LeftHandMiddle4
												{
													OFFSET -0.000000 2.741236 0.000000
													CHANNELS 3 Zrotation Yrotation Xrotation
													End Site
													{
														OFFSET 0.000000 0.000000 0.000000
													}
												}
											}
										}
									}
									JOINT LeftHandRing1
									{
										OFFSET -0.086752 8.921708 -2.267442
										CHANNELS 3 Zrotation Yrotation Xrotation
										JOINT LeftHandRing2
										{
											OFFSET -0.000000 4.061090 0.000000
											CHANNELS 3 Zrotation Yrotation Xrotation
											JOINT LeftHandRing3
											{
												OFFSET 0.000000 3.654981 -0.000000
												CHANNELS 3 Zrotation Yrotation Xrotation
												JOINT LeftHandRing4
												{
													OFFSET 0.000000 2.741236 -0.000000
													CHANNELS 3 Zrotation Yrotation Xrotation
													End Site
													{
														OFFSET 0.000000 0.000000 0.000000
													}
												}
											}
										}
									}
									JOINT LeftHandPinky1
									{
										OFFSET 0.173504 7.976997 -4.467199
										CHANNELS 3 Zrotation Yrotation Xrotation
										JOINT LeftHandPinky2
										{
											OFFSET 0.000000 3.350399 0.000000
											CHANNELS 3 Zrotation Yrotation Xrotation
											JOINT LeftHandPinky3
											{
												OFFSET -0.000000 2.842763 0.000000
												CHANNELS 3 Zrotation Yrotation Xrotation
												JOINT LeftHandPinky4
												{
													OFFSET 0.000000 2.639709 -0.000000
													CHANNELS 3 Zrotation Yrotation Xrotation
													End Site
													{
														OFFSET 0.000000 0.000000 0.000000
													}
												}
											}
										}
									}
									JOINT LeftForeArmEnd
									{
										OFFSET 0.000000 0.000000 0.000000
										CHANNELS 3 Zrotation Yrotation Xrotation
										End Site
										{
											OFFSET 0.000000 0.000000 0.000000
										}
									}
								}
								JOINT LeftArmEnd
								{
									OFFSET 0.000000 0.000000 0.000000
									CHANNELS 3 Zrotation Yrotation Xrotation
									End Site
									{
										OFFSET 0.000000 0.000000 0.000000
									}
								}
							}
						}
					}
				}
			}
		}
	}
	JOINT RightUpLeg
	{
		OFFSET -11.289943 0.000000 -0.000000
		CHANNELS 3 Zrotation Yrotation Xrotation
		JOINT RightLeg
		{
			OFFSET 0.000000 -38.200325 0.000000
			CHANNELS 3 Zrotation Yrotation Xrotation
			JOINT RightFoot
			{
				OFFSET -0.000000 -39.900856 0.000000
				CHANNELS 3 Zrotation Yrotation Xrotation
				JOINT RightToeBase
				{
					OFFSET -0.000000 -0.000000 15.261641
					CHANNELS 3 Zrotation Yrotation Xrotation
					JOINT RightToeBaseEnd
					{
						OFFSET -0.000000 0.000000 7.370709
						CHANNELS 3 Zrotation Yrotation Xrotation
						End Site
						{
							OFFSET 0.000000 0.000000 0.000000
						}
					}
				}
				JOINT RightLegEnd
				{
					OFFSET 0.000000 0.000000 0.000000
					CHANNELS 3 Zrotation Yrotation Xrotation
					End Site
					{
						OFFSET 0.000000 0.000000 0.000000
					}
				}
			}
			JOINT RightUpLegEnd
			{
				OFFSET 0.000000 0.000000 0.000000
				CHANNELS 3 Zrotation Yrotation Xrotation
				End Site
				{
					OFFSET 0.000000 0.000000 0.000000
				}
			}
		}
	}
	JOINT LeftUpLeg
	{
		OFFSET 11.315661 0.000000 -0.000000
		CHANNELS 3 Zrotation Yrotation Xrotation
		JOINT LeftLeg
		{
			OFFSET -0.000000 -38.200325 0.000000
			CHANNELS 3 Zrotation Yrotation Xrotation
			JOINT LeftFoot
			{
				OFFSET 0.000000 -39.900856 0.000000
				CHANNELS 3 Zrotation Yrotation Xrotation
				JOINT LeftToeBase
				{
					OFFSET -0.000000 -0.000000 15.261641
					CHANNELS 3 Zrotation Yrotation Xrotation
					JOINT LeftToeBaseEnd
					{
						OFFSET 0.000000 -0.000000 7.539996
						CHANNELS 3 Zrotation Yrotation Xrotation
						End Site
						{
							OFFSET 0.000000 0.000000 0.000000
						}
					}
				}
				JOINT LeftLegEnd
				{
					OFFSET 0.000000 0.000000 0.000000
					CHANNELS 3 Zrotation Yrotation Xrotation
					End Site
					{
						OFFSET 0.000000 0.000000 0.000000
					}
				}
			}
			JOINT LeftUpLegEnd
			{
				OFFSET 0.000000 0.000000 0.000000
				CHANNELS 3 Zrotation Yrotation Xrotation
				End Site
				{
					OFFSET 0.000000 0.000000 0.000000
				}
			}
		}
	}
}
MOTION
Frames: 5
Frame Time: 0.016667
5.124783 86.257683 20.937634 5.520140 -1.711103 -11.421443 -3.900685 0.799312 7.097785 7.005394 -0.942493 -8.049031 -12.286941 6.676935 17.393078 -0.397523 0.278538 -0.900903 25.286457 -11.558409 10.602139 -0.743164 -2.503182 -6.518658 4.229136 4.685575 -18.232950 -0.000000 0.000000 -0.000000 94.010315 -0.987854 13.274728 30.814703 -55.214375 46.619411 0.446363 6.577430 34.542934 -2.774795 -4.049983 -11.990829 7.353996 -1.477447 41.368053 -0.000000 0.000000 -18.000000 0.000000 -0.000000 -12.500000 -0.000000 0.000000 0.000000 0.890240 0.000000 -6.173254 0.623168 -0.000000 0.000000 0.623168 -0.000000 -0.000000 0.000000 -0.000000 -0.000000 0.836291 0.000000 -9.259034 0.585403 -0.000000 -0.000000 0.585403 -0.000000 0.000000 0.000000 -0.000000 0.000000 0.263363 0.000000 -12.253490 0.184354 -0.000000 0.000000 0.184354 -0.000000 0.000000 0.000000 0.000000 0.000000 -0.792477 0.000000 -16.275423 0.000000 0.000000 -0.000000 0.000000 0.000000 0.000000 0.000000 0.000000 0.000000 0.000000 -0.000000 0.000000 0.000000 0.000000 0.000000 -91.433594 0.385310 12.906244 -1.889667 55.284195 63.770966 0.762398 4.943765 47.382385 -19.357393 32.219013 -29.837130 -7.651653 1.517517 41.228928 -0.000000 -0.000000 -18.719999 -0.000000 0.000000 -13.000000 0.000000 -0.000000 0.000000 -6.394026 0.000000 -10.692291 -4.475818 0.000000 -0.000000 -4.475818 0.000000 0.000000 -0.000000 0.000000 0.000000 -6.815369 -0.000000 -12.884427 -4.770758 -0.000000 -0.000000 -4.770758 0.000000 -0.000000 0.000000 -0.000000 -0.000000 -7.717690 0.000000 -13.696678 -5.402383 -0.000000 0.000000 -5.402383 -0.000000 -0.000000 0.000000 -0.000000 0.000000 -7.785577 0.000000 -14.674152 -5.449904 0.000000 -0.000000 -5.449904 0.000000 0.000000 0.000000 -0.000000 0.000000 0.000000 -0.000000 0.000000 -0.000000 0.000000 0.000000 -15.865362 -6.945711 11.851724 -0.493777 -0.995312 26.388174 9.607237 -23.013498 9.310535 -1.010662 -1.591784 -26.712299 0.000000 0.000000 0.000000 -0.000000 -0.000000 -0.000000 -0.000000 -0.000000 0.000000 -6.426266 1.945378 10.535581 0.087549 0.371590 13.257624 5.849092 6.956708 14.671599 0.134249 0.389238 -26.389383 0.000000 0.000000 0.000000 0.000000 0.000000 -0.000000 0.000000 -0.000000 -0.000000 
5.521801 86.230209 20.994404 5.663070 -1.108679 -11.181990 -3.900332 0.769767 6.967093 6.683425 -0.871326 -7.928625 -12.102849 6.608606 17.325491 -0.554432 0.310030 -0.862850 25.674231 -11.921767 10.155928 -0.722680 -2.722739 -6.730498 4.317762 4.685634 -18.051531 -0.000000 0.000000 -0.000000 93.881157 -0.965251 13.395460 30.483154 -55.394291 47.041119 0.417379 6.124251 34.470451 -3.208241 -6.286818 -11.803969 7.056543 -1.435947 41.507744 0.000000 -0.000000 -17.280001 -0.000000 0.000000 -12.000000 0.000000 0.000000 0.000000 -0.602818 -0.000000 -5.403077 -0.000000 0.000000 -0.000000 0.000000 0.000000 0.000000 0.000000 0.000000 -0.000000 -0.666567 -0.000000 -8.719505 -0.000000 0.000000 -0.000000 0.000000 0.000000 0.000000 -0.000000 -0.000000 0.000000 -1.346888 -0.000000 -12.044732 0.000000 0.000000 0.000000 0.000000 0.000000 0.000000 0.000000 0.000000 0.000000 -2.473623 -0.000000 -16.255899 0.000000 0.000000 0.000000 0.000000 0.000000 0.000000 0.000000 0.000000 0.000000 0.000000 -0.000000 0.000000 0.000000 0.000000 0.000000 -91.281113 0.350315 13.064101 -0.924509 55.566505 64.679314 0.730397 4.783807 47.466908 -20.019632 32.320271 -30.233999 -7.651653 1.517517 41.228928 -0.000000 -0.000000 -18.719999 0.000000 0.000000 -13.000000 -0.000000 0.000000 0.000000 -6.672022 0.000000 -10.147361 -4.670415 -0.000000 -0.000000 -4.670415 0.000000 0.000000 -0.000000 -0.000000 -0.000000 -6.986357 0.000000 -12.423366 -4.890450 -0.000000 -0.000000 -4.890450 -0.000000 -0.000000 0.000000 0.000000 -0.000000 -7.641362 -0.000000 -13.334222 -5.348953 0.000000 0.000000 -5.348953 -0.000000 0.000000 0.000000 0.000000 0.000000 -7.453591 -0.000000 -14.359042 -5.217514 -0.000000 -0.000000 -5.217514 -0.000000 -0.000000 -0.000000 -0.000000 -0.000000 0.000000 -0.000000 0.000000 -0.000000 0.000000 0.000000 -16.122198 -6.793501 11.224207 -0.527614 -1.015353 27.460144 9.747546 -23.523485 9.437354 -0.782898 -1.543961 -27.022345 0.000000 -0.000000 0.000000 -0.000000 -0.000000 -0.000000 0.000000 0.000000 0.000000 -6.891575 1.689202 10.291206 0.080640 0.341252 13.274855 6.170589 6.753028 14.706517 0.099305 0.390231 -26.426821 0.000000 0.000000 0.000000 0.000000 0.000000 0.000000 0.000000 -0.000000 -0.000000 
5.915784 86.198013 21.047430 5.819905 -0.467713 -10.949393 -3.898622 0.730134 6.850314 6.384523 -0.806930 -7.785892 -11.980720 6.560816 17.205538 -0.697200 0.335036 -0.819009 26.053551 -12.285498 9.728058 -0.715692 -2.949482 -6.930214 4.388457 4.673635 -17.883450 -0.000000 0.000000 -0.000000 93.770859 -0.945672 13.501049 30.141336 -55.547485 47.466137 0.391046 5.689091 34.384804 -3.613544 -8.618531 -11.744431 6.759302 -1.393014 41.647980 -0.000000 0.000000 -16.559999 -0.000000 -0.000000 -11.500000 0.000000 -0.000000 0.000000 -2.396708 0.000000 -4.865050 0.000000 0.000000 0.000000 0.000000 0.000000 0.000000 -0.000000 0.000000 0.000000 -2.499029 -0.000000 -8.387780 -0.000000 -0.000000 -0.000000 0.000000 0.000000 0.000000 0.000000 0.000000 0.000000 -3.366007 -0.000000 -12.019509 0.000000 0.000000 0.000000 0.000000 0.000000 0.000000 0.000000 0.000000 0.000000 -4.637916 -0.000000 -16.419804 0.000000 -0.000000 -0.000000 -0.000000 0.000000 0.000000 0.000000 0.000000 0.000000 -0.000000 0.000000 0.000000 0.000000 0.000000 -0.000000 -91.126724 0.314149 13.223041 -0.112856 55.801857 65.438148 0.709493 4.703130 47.560905 -20.554531 32.512947 -30.581957 -7.651653 1.517517 41.228928 -0.000000 -0.000000 -18.719999 0.000000 0.000000 -13.000000 -0.000000 0.000000 0.000000 -6.785197 0.000000 -9.518915 -4.749638 0.000000 0.000000 -4.749638 -0.000000 0.000000 -0.000000 0.000000 -0.000000 -6.972383 -0.000000 -11.904820 -4.880668 0.000000 0.000000 -4.880668 0.000000 -0.000000 0.000000 0.000000 -0.000000 -7.327630 0.000000 -12.976654 -5.129341 -0.000000 -0.000000 -5.129341 0.000000 0.000000 -0.000000 -0.000000 -0.000000 -6.840436 -0.000000 -14.130655 -4.788305 0.000000 0.000000 -4.788305 0.000000 0.000000 0.000000 -0.000000 0.000000 0.000000 -0.000000 0.000000 -0.000000 0.000000 0.000000 -16.362759 -6.591845 10.601679 -0.563523 -1.035318 28.561588 9.871370 -24.110617 9.572235 -0.544161 -1.494305 -27.343090 0.000000 0.000000 -0.000000 -0.000000 0.000000 -0.000000 0.000000 0.000000 -0.000000 -7.373006 1.396254 10.059718 0.073427 0.310854 13.290527 6.489701 6.550879 14.742876 0.063859 0.390392 -26.461327 0.000000 0.000000 0.000000 0.000000 0.000000 -0.000000 -0.000000 -0.000000 0.000000 
6.305136 86.163925 21.101048 5.983975 0.208369 -10.755319 -3.897657 0.696008 6.733643 6.117738 -0.755551 -7.595544 -11.918247 6.528839 17.070845 -0.830617 0.355346 -0.757797 26.413305 -12.636961 9.316595 -0.711522 -3.175216 -7.116169 4.457267 4.659439 -17.753517 -0.000000 0.000000 -0.000000 93.692078 -0.932699 13.596205 29.702339 -55.662117 47.952820 0.372039 5.268901 34.275471 -3.986926 -10.579432 -11.783115 6.462281 -1.348641 41.788757 -0.000000 -0.000000 -15.840000 -0.000000 -0.000000 -11.000000 0.000000 0.000000 -0.000000 -4.079291 -0.000000 -4.522558 -0.000000 0.000000 -0.000000 0.000000 0.000000 0.000000 0.000000 0.000000 0.000000 -4.151504 -0.000000 -8.290769 -0.000000 0.000000 -0.000000 0.000000 0.000000 0.000000 0.000000 -0.000000 0.000000 -5.031236 -0.000000 -12.294820 -0.000000 0.000000 -0.000000 -0.000000 -0.000000 0.000000 0.000000 0.000000 0.000000 -6.288436 -0.000000 -16.965981 0.000000 0.000000 0.000000 0.000000 0.000000 0.000000 0.000000 0.000000 0.000000 -0.000000 0.000000 0.000000 0.000000 0.000000 0.000000 -90.968880 0.274684 13.334493 0.595551 55.959255 66.110687 0.706610 4.675080 47.648491 -20.974779 32.746014 -30.864826 -7.651653 1.517517 41.228928 0.000000 -0.000000 -18.719999 -0.000000 0.000000 -13.000000 0.000000 -0.000000 0.000000 -6.450541 -0.000000 -9.269014 -4.515379 -0.000000 0.000000 -4.515379 0.000000 -0.000000 -0.000000 -0.000000 -0.000000 -6.530899 -0.000000 -11.685984 -4.571629 -0.000000 -0.000000 -4.571629 -0.000000 -0.000000 0.000000 0.000000 0.000000 -6.625043 0.000000 -12.799443 -4.637530 -0.000000 0.000000 -4.637530 0.000000 0.000000 -0.000000 -0.000000 0.000000 -5.892183 -0.000000 -13.969351 -4.124528 -0.000000 -0.000000 -4.124528 0.000000 0.000000 -0.000000 0.000000 -0.000000 0.000000 -0.000000 0.000000 -0.000000 0.000000 0.000000 -16.575949 -6.324504 10.038011 -0.601180 -1.056168 29.651167 9.961509 -24.786612 9.726384 -0.296878 -1.441476 -27.666208 0.000000 0.000000 -0.000000 -0.000000 -0.000000 -0.000000 -0.000000 -0.000000 0.000000 -7.861117 1.073034 9.876471 0.066332 0.280489 13.305110 6.804864 6.349067 14.783657 0.027516 0.390337 -26.499041 0.000000 0.000000 0.000000 0.000000 0.000000 0.000000 -0.000000 -0.000000 0.000000 
6.689051 86.129967 21.154367 6.155238 0.920716 -10.599865 -3.900292 0.673877 6.605011 5.893147 -0.718679 -7.376070 -11.936392 6.526052 16.970812 -0.938702 0.371465 -0.675722 26.761530 -12.977366 8.910037 -0.708567 -3.396855 -7.297857 4.536147 4.652744 -17.665970 -0.000000 0.000000 -0.000000 93.650032 -0.927343 13.674003 29.040436 -55.781883 48.603088 0.368503 5.019285 34.119862 -4.425566 -12.059071 -11.828548 6.165488 -1.302824 41.930065 0.000000 0.000000 -15.120000 0.000000 -0.000000 -10.500000 -0.000000 0.000000 -0.000000 -4.948871 0.000000 -4.375257 -0.000000 0.000000 0.000000 0.000000 0.000000 0.000000 0.000000 -0.000000 -0.000000 -4.972929 0.000000 -8.245520 0.000000 0.000000 0.000000 0.000000 0.000000 0.000000 0.000000 -0.000000 0.000000 -5.775302 0.000000 -12.404677 0.000000 -0.000000 0.000000 0.000000 0.000000 0.000000 0.000000 0.000000 0.000000 -6.929953 0.000000 -17.196257 0.000000 -0.000000 0.000000 0.000000 0.000000 0.000000 0.000000 0.000000 0.000000 -0.000000 0.000000 -0.000000 -0.000000 -0.000000 0.000000 -90.809410 0.234427 13.402981 1.223286 56.012814 66.706360 0.711321 4.674374 47.730103 -21.347584 32.917763 -31.114677 -7.353996 1.477447 41.368053 -0.000000 -0.000000 -18.000000 -0.000000 0.000000 -12.500000 0.000000 0.000000 -0.000000 -6.059903 -0.000000 -9.070459 -4.241932 -0.000000 0.000000 -4.241932 0.000000 0.000000 -0.000000 0.000000 -0.000000 -6.097081 -0.000000 -11.552920 -4.267957 -0.000000 -0.000000 -4.267957 -0.000000 -0.000000 -0.000000 -0.000000 -0.000000 -6.075595 0.000000 -12.775779 -4.252916 -0.000000 -0.000000 -4.252916 -0.000000 0.000000 0.000000 -0.000000 -0.000000 -5.242683 -0.000000 -14.030426 -3.669878 -0.000000 -0.000000 -3.669878 -0.000000 -0.000000 0.000000 0.000000 -0.000000 0.000000 -0.000000 0.000000 -0.000000 0.000000 0.000000 -16.735807 -5.944129 9.538189 -0.641016 -1.079153 30.712656 10.026886 -25.605207 9.897252 -0.046663 -1.385454 -27.989573 0.000000 -0.000000 0.000000 -0.000000 -0.000000 -0.000000 -0.000000 -0.000000 0.000000 -8.351742 0.731923 9.740274 0.059325 0.250590 13.320127 7.116758 6.132210 14.835032 -0.009445 0.391063 -26.545504 -0.000000 -0.000000 0.000000 0.000000 0.000000 -0.000000 -0.000000 -0.000000 0.000000 
